<svg width="24" height="23" viewBox="0 0 24 23" fill="none" xmlns="http://www.w3.org/2000/svg">
<path d="M8.25 22.25H1.5C1.08579 22.25 0.75 21.9142 0.75 21.5V16.25" stroke="#5C5589" stroke-width="1.5" stroke-linecap="round" stroke-linejoin="round"/>
<path d="M8.25 16.25H0.75V10.25" stroke="#5C5589" stroke-width="1.5" stroke-linecap="round" stroke-linejoin="round"/>
<path d="M12.75 10.25H0.75V5C0.75 4.58579 1.08579 4.25 1.5 4.25H12C12.4142 4.25 12.75 4.58579 12.75 5V10.25" stroke="#5C5589" stroke-width="1.5" stroke-linecap="round" stroke-linejoin="round"/>
<path d="M1.5 4.25V2C1.5 1.58579 1.83579 1.25 2.25 1.25H4.5C4.91421 1.25 5.25 1.58579 5.25 2V4.25" stroke="#5C5589" stroke-width="1.5" stroke-linecap="round" stroke-linejoin="round"/>
<path d="M8.25 4.25V2C8.25 1.58579 8.58579 1.25 9 1.25H11.25C11.6642 1.25 12 1.58579 12 2V4.25" stroke="#5C5589" stroke-width="1.5" stroke-linecap="round" stroke-linejoin="round"/>
<path d="M12 16.25V14C12 13.5858 12.3358 13.25 12.75 13.25H15C15.4142 13.25 15.75 13.5858 15.75 14V16.25" stroke="#5C5589" stroke-width="1.5" stroke-linecap="round" stroke-linejoin="round"/>
<path d="M18.75 16.25V14C18.75 13.5858 19.0858 13.25 19.5 13.25H21.75C22.1642 13.25 22.5 13.5858 22.5 14V16.25" stroke="#5C5589" stroke-width="1.5" stroke-linecap="round" stroke-linejoin="round"/>
<path fill-rule="evenodd" clip-rule="evenodd" d="M11.25 17C11.25 16.5858 11.5858 16.25 12 16.25H22.5C22.9142 16.25 23.25 16.5858 23.25 17V21.5C23.25 21.9142 22.9142 22.25 22.5 22.25H12C11.5858 22.25 11.25 21.9142 11.25 21.5V17Z" stroke="#5C5589" stroke-width="1.5" stroke-linecap="round" stroke-linejoin="round"/>
</svg>
